#!OML:ASF F:\VICON\USERDATA\INSTALL\rory3\rory3.ASF
:FULLY-SPECIFIED
:DEGREES
2712
root 2.32902 18.287 -5.40715 8.79379 -28.0175 -0.31621
lowerback 13.6514 1.78983 0.493558
upperback 1.62443 2.49387 1.20772
thorax -5.96978 1.21111 0.532704
lowerneck -23.1163 3.76982 -6.64523
upperneck 18.1028 8.12102 -3.04692
head 9.41471 2.91507 1.17826
rclavicle -4.35338e-014 -1.31198e-014
rhumerus -28.9005 21.464 -88.5674
rradius 121.168
rwrist 10.9378
rhand -18.1267 17.7188
rfingers 7.12502
rthumb 8.14802 -12.1041
lclavicle -4.35338e-014 -1.31198e-014
lhumerus -12.6399 -2.12309 84.3207
lradius 124.605
lwrist -4.59396
lhand -16.7072 9.60178
lfingers 7.12502
lthumb 9.51781 39.3668
rfemur -27.6659 -2.6464 7.6839
rtibia 42.8599
rfoot -2.05661 2.94168
rtoes -6.96498
lfemur -24.3951 -0.130325 -4.45982
ltibia 44.7281
lfoot 0.298692 -11.4313
ltoes -30.3727
2713
root 2.20575 18.2606 -5.45332 8.55958 -27.324 -0.349461
lowerback 13.7211 1.67766 0.548549
upperback 1.56031 2.36163 1.28375
thorax -6.07636 1.14594 0.603309
lowerneck -22.9021 3.65513 -6.64714
upperneck 18.301 7.89314 -2.76111
head 9.43547 2.83841 1.24348
rclavicle 4.63168e-014 4.77083e-015
rhumerus -28.8816 20.8867 -88.5731
rradius 120.931
rwrist 10.7231
rhand -18.354 17.6464
rfingers 7.12502
rthumb 7.92864 -12.1849
lclavicle 4.63168e-014 4.77083e-015
lhumerus -12.3592 -2.53665 84.2679
lradius 124.528
lwrist -4.82736
lhand -17.6016 9.30544
lfingers 7.12502
lthumb 8.65481 39.108
rfemur -27.08 -2.67989 7.51098
rtibia 44.7226
rfoot -2.74028 2.59628
rtoes -6.89252
lfemur -24.5726 0.182934 -4.951
ltibia 43.7781
lfoot -0.213695 -13.296
ltoes -30.3946
2714
root 2.08534 18.2217 -5.49022 8.34665 -26.7083 -0.443157
lowerback 13.6935 1.59185 0.675932
upperback 1.5061 2.27448 1.37001
thorax -6.11637 1.10152 0.638626
lowerneck -22.7446 3.57057 -6.5323
upperneck 18.5438 7.69366 -2.552
head 9.49011 2.77069 1.27066
rclavicle 6.16232e-015 -1.35174e-014
rhumerus -28.9919 20.2243 -88.7042
rradius 120.741
rwrist 9.96017
rhand -18.7396 17.8013
rfingers 7.12502
rthumb 7.55648 -12.0437
lclavicle 6.16232e-015 -1.35174e-014
lhumerus -12.0186 -3.0144 84.3213
lradius 124.403
lwrist -5.3284
lhand -17.9539 9.1867
lfingers 7.12502
lthumb 8.31484 39.0031
rfemur -26.4135 -2.6509 7.33995
rtibia 46.3845
rfoot -3.25101 2.20619
rtoes -7.80848
lfemur -24.5943 0.464735 -5.42378
ltibia 42.701
lfoot -0.579344 -15.0856
ltoes -30.1662
2715
root 1.96386 18.1709 -5.5215 8.16421 -26.1441 -0.641925
lowerback 13.4635 1.51926 0.845338
upperback 1.53201 2.21007 1.52907
thorax -5.9609 1.06887 0.728929
lowerneck -22.6666 3.33462 -6.89779
upperneck 18.8112 7.38479 -2.05569
head 9.54002 2.65032 1.45886
rclavicle 4.13472e-014 -1.03368e-014
rhumerus -29.186 19.6571 -88.941
rradius 120.444
rwrist 8.44427
rhand -19.7176 18.5471
rfingers 7.12502
rthumb 6.6124 -11.3297
lclavicle 4.13472e-014 -1.03368e-014
lhumerus -11.686 -3.43338 84.5101
lradius 124.305
lwrist -6.1558
lhand -16.9141 10.0251
lfingers 7.12502
lthumb 9.31823 39.7992
rfemur -25.6345 -2.47551 7.26699
rtibia 47.7846
rfoot -3.66147 1.53674
rtoes -8.7217
lfemur -24.5187 0.6275 -5.74821
ltibia 41.6122
lfoot -0.698581 -16.8718
ltoes -29.2605
2716
root 1.84296 18.1071 -5.55511 7.90434 -25.3442 -0.782691
lowerback 13.4727 1.37628 0.959245
upperback 1.43644 2.0541 1.73074
thorax -6.06967 0.992155 0.904523
lowerneck -22.503 2.97063 -7.59751
upperneck 19.157 6.95671 -1.35856
head 9.58963 2.47197 1.75308
rclavicle 4.96962e-015 -1.74931e-014
rhumerus -29.5686 19.1575 -89.0844
rradius 120.23
rwrist 6.95722
rhand -20.4286 19.1127
rfingers 7.12502
rthumb 5.92603 -10.7844
lclavicle 4.96962e-015 -1.74931e-014
lhumerus -11.6965 -3.93096 84.8789
lradius 124.093
lwrist -8.20247
lhand -16.8195 10.7146
lfingers 7.12502
lthumb 9.40951 40.4845
rfemur -24.6536 -2.48112 7.23454
rtibia 48.898
rfoot -3.89941 0.26452
rtoes -9.74413
lfemur -24.4616 0.594852 -6.06339
ltibia 40.6157
lfoot -0.618127 -18.6893
ltoes -28.5403
